# xmcd
#
# Track frame offsets: 
#        150
#        15325
#        34470
#        48480
#        63517
#        80397
#        95240
#        108210
#        120225
#        133870
#        145852
#        157002
#        172190
#        190077
#        205992
#        220337
#        232492
#        249250
#
# Disc length: 3530 seconds
#
# Revision: 2
# Processed by: cddbd v1.5.2PL0 Copyright (c) Steve Scherf et al.
# Submitted via: ExactAudioCopyFreeDBPlugin 1.0
#
DISCID=090dc812
DTITLE=Various Artist - The History of Country Music - Eighties   Vol
DTITLE=1 [CD 2)
DYEAR=1993
DGENRE=Country
TTITLE0=The Judds - Have Mercy
TTITLE1=Ronnie Milsap - Lost In The Fifties Tonight (In The Still Of T
TTITLE1=he Night)
TTITLE2=Willie Nelson - My Heroes Have Always Been Cowboys
TTITLE3=Ricky Van Shelton - Somebody Lied
TTITLE4=Ricky Skaggs - Cajun Moon
TTITLE5=George Jones - He Stopped Loving Her Today
TTITLE6=Oak Ridge Boys - Bobbie Sue
TTITLE7=Gene Watson - Fourteen Carat Mind
TTITLE8=Charley Pride - Never Been So Loved (In All My Life
TTITLE9=Ronnie McDowell - Older Women
TTITLE10=Sylvia - Drifter
TTITLE11=Eddie Rabbitt - The Wanderer
TTITLE12=Restless Heart - I'll Still Be Loving You
TTITLE13=Merle Haggard - I Think I'll Just Stay Here And Drink
TTITLE14=Charly McClain - Radio Heart
TTITLE15=John Conlee - Common Man
TTITLE16=Alabama - Take Me Down
TTITLE17=The Statler Brothers - Elizabeth
EXTD=YEAR: 1993 ID3G: 2
EXTT0=
EXTT1=
EXTT2=
EXTT3=
EXTT4=
EXTT5=
EXTT6=
EXTT7=
EXTT8=
EXTT9=
EXTT10=
EXTT11=
EXTT12=
EXTT13=
EXTT14=
EXTT15=
EXTT16=
EXTT17=
PLAYORDER=
